<svg width="82" height="31" viewBox="0 0 82 31" fill="none" xmlns="http://www.w3.org/2000/svg">
<path d="M25.7617 1.03125L16.3477 14.0391L24.2773 27.8672L15.2148 29.4688L9.27734 21.0312L8.96484 29.8594L0.839844 30.1719L1.46484 0.25L10.5664 0.757812L9.86328 9.58594L15.918 0.25L25.7617 1.03125ZM35.7617 1.5L34.3945 28.1016L26.1523 28.5312L25.3711 2.04688L35.7617 1.5ZM55.9961 2.32031L55.293 10.5625C54.9154 10.4583 54.5443 10.3867 54.1797 10.3477C53.8151 10.3086 53.444 10.2891 53.0664 10.2891C52.1419 10.2891 51.2565 10.4062 50.4102 10.6406C49.5768 10.875 48.8346 11.2331 48.1836 11.7148C47.5456 12.1966 47.0312 12.8086 46.6406 13.5508C46.263 14.2799 46.0742 15.1458 46.0742 16.1484C46.0742 16.8776 46.1784 17.5156 46.3867 18.0625C46.6081 18.5964 46.9141 19.0456 47.3047 19.4102C47.7083 19.7617 48.1901 20.0286 48.75 20.2109C49.3229 20.3932 49.9544 20.4844 50.6445 20.4844C51.1263 20.4844 51.6211 20.4388 52.1289 20.3477C52.6367 20.2435 53.1445 20.1068 53.6523 19.9375C54.1602 19.7682 54.6484 19.5729 55.1172 19.3516C55.5859 19.1302 56.0221 18.8958 56.4258 18.6484L56.1133 27.8281C55.6055 28.0885 55.0586 28.3229 54.4727 28.5312C53.8867 28.7266 53.2812 28.8958 52.6562 29.0391C52.0443 29.1953 51.4258 29.3125 50.8008 29.3906C50.1888 29.4688 49.6029 29.5078 49.043 29.5078C47.194 29.5078 45.5078 29.1628 43.9844 28.4727C42.474 27.7826 41.1719 26.8451 40.0781 25.6602C38.9974 24.4622 38.1576 23.0755 37.5586 21.5C36.9596 19.9245 36.6602 18.2448 36.6602 16.4609C36.6602 14.3255 36.9596 12.3333 37.5586 10.4844C38.1706 8.63542 39.0625 7.03385 40.2344 5.67969C41.4193 4.3125 42.8776 3.24479 44.6094 2.47656C46.3542 1.69531 48.3529 1.30469 50.6055 1.30469C51.5039 1.30469 52.4154 1.3763 53.3398 1.51953C54.2643 1.66276 55.1497 1.92969 55.9961 2.32031ZM81.875 3.76562L73.2422 14.0391L81.1719 27.4766L72.1094 29.0781L66.1719 21.0312L65.8594 28.6875L57.7344 29L58.3594 1.03125L67.4609 1.53906L66.7578 9.58594L72.4219 1.42188L81.875 3.76562Z" fill="black"/>
</svg>
